<?xml version="1.0" encoding="utf-8"?>
<!-- Generator: Adobe Illustrator 27.1.1, SVG Export Plug-In . SVG Version: 6.00 Build 0)  -->
<svg version="1.1" id="Layer_1" xmlns="http://www.w3.org/2000/svg" xmlns:xlink="http://www.w3.org/1999/xlink" x="0px" y="0px"
	 viewBox="0 0 152 95.4" style="enable-background:new 0 0 152 95.4;" xml:space="preserve">
<style type="text/css">
	.st0{fill:#FFFFFF;}
</style>
<g>
	<path class="st0" d="M22.7,54.4c-0.5-0.4-1.1-0.8-1.7-1.1c-0.6-0.3-1.4-0.6-2.1-0.8c-0.8-0.2-1.6-0.3-2.5-0.3c-1.4,0-2.8,0.2-4,0.7
		C11,53.3,9.9,54,9,54.9c-0.9,0.9-1.6,2.1-2.2,3.5c-0.5,1.4-0.8,3.1-0.8,5c0,1.7,0.2,3.2,0.7,4.6c0.5,1.4,1.1,2.5,2,3.5
		c0.9,0.9,2,1.7,3.3,2.2c1.3,0.5,2.8,0.8,4.4,0.8c0.5,0,1,0,1.5-0.1c0.5,0,1.1-0.1,1.6-0.2c0.5-0.1,1-0.2,1.4-0.3
		c0.4-0.1,0.8-0.3,1.1-0.5c0-0.7,0-1.4,0.1-2.1c0-0.7,0-1.4,0-2.1c0-0.8,0-1.6-0.1-2.4c0-0.8-0.1-1.6-0.1-2.3
		c0.6,0.1,1.1,0.2,1.7,0.2c0.3,0,0.5,0,0.8,0c0.3,0,0.5-0.1,0.7-0.1c0,0.5-0.1,1.4-0.1,2.5c0,1.2,0,2.7,0,4.6c0,0.5,0,0.9,0,1.4
		c0,0.5,0,1,0,1.4c-0.5,0.2-1.1,0.4-1.8,0.6c-0.7,0.2-1.5,0.4-2.3,0.5c-0.8,0.1-1.7,0.2-2.5,0.3c-0.8,0.1-1.6,0.2-2.3,0.2
		c-2.1,0-3.9-0.3-5.6-0.8c-1.7-0.5-3.1-1.3-4.3-2.3c-1.2-1.1-2.1-2.4-2.7-3.9c-0.6-1.6-0.9-3.4-0.9-5.4c0-2,0.3-3.7,1-5.3
		c0.7-1.6,1.6-2.9,2.8-3.9c1.2-1.1,2.6-1.9,4.3-2.4c1.7-0.6,3.6-0.8,5.6-0.8c1.2,0,2.2,0.1,3.2,0.2c0.9,0.1,1.7,0.3,2.4,0.5
		c0.7,0.2,1.3,0.4,1.9,0.7c0.5,0.2,1,0.5,1.4,0.7c-0.2,0.3-0.4,0.7-0.5,1.3c-0.2,0.5-0.3,1-0.3,1.4H24
		C23.7,55.2,23.2,54.8,22.7,54.4"/>
	<path class="st0" d="M38.2,60.4c0-1.5,0-3.1-0.1-4.5c-0.1-1.5-0.1-3-0.2-4.5c0.7,0,1.3,0.1,2,0.1c0.7,0,1.3,0.1,2,0.1
		c0.7,0,1.3,0,2-0.1c0.7-0.1,1.3-0.1,2-0.1c1,0,1.9,0.1,2.8,0.3c0.9,0.2,1.7,0.5,2.3,0.9c0.7,0.4,1.2,1,1.6,1.7
		c0.4,0.7,0.6,1.6,0.6,2.6c0,1.1-0.3,2.1-0.8,2.9c-0.5,0.8-1.1,1.5-1.8,2c-0.7,0.5-1.5,0.9-2.3,1.2c-0.8,0.3-1.6,0.5-2.3,0.6
		c0.3,0.4,0.7,0.8,1.2,1.5c0.5,0.6,1,1.3,1.6,2.1c0.6,0.8,1.2,1.6,1.9,2.4c0.7,0.8,1.3,1.6,1.9,2.4c0.6,0.8,1.2,1.5,1.7,2.1
		c0.5,0.6,1,1.1,1.3,1.4c-0.3,0-0.7-0.1-1-0.1h-1h-1c-0.3,0-0.7,0-1,0.1c-0.3-0.5-0.9-1.2-1.6-2.2c-0.7-1-1.5-2-2.4-3.1
		c-0.9-1.1-1.7-2.2-2.6-3.3c-0.9-1.1-1.7-2-2.5-2.8h-1.3v2.6c0,1.5,0,3.1,0.1,4.5c0.1,1.5,0.1,3,0.2,4.4c-0.5,0-1.1-0.1-1.7-0.1
		c-0.6,0-1.2,0-1.7,0.1C38,74,38,72.5,38.1,71c0.1-1.5,0.1-3,0.1-4.5V60.4z M41.1,62.4c0.3,0.1,0.7,0.1,1.1,0.1c0.4,0,0.8,0,1.3,0
		c0.7,0,1.5-0.1,2.3-0.2c0.8-0.2,1.5-0.4,2.2-0.9c0.7-0.4,1.2-1,1.6-1.6c0.4-0.7,0.6-1.6,0.6-2.6c0-0.9-0.2-1.7-0.5-2.3
		c-0.3-0.6-0.8-1.1-1.3-1.4c-0.5-0.3-1.1-0.6-1.7-0.7c-0.6-0.1-1.2-0.2-1.9-0.2c-0.8,0-1.5,0-2,0.1c-0.5,0-1,0.1-1.4,0.1
		c0,1.3-0.1,2.6-0.1,3.8c0,1.3-0.1,2.5-0.1,3.8V62.4z"/>
	<path class="st0" d="M64.6,63.4c0-2,0.3-3.7,1-5.3c0.6-1.6,1.5-2.9,2.7-3.9c1.2-1.1,2.5-1.9,4.1-2.4c1.6-0.6,3.4-0.8,5.3-0.8
		c1.9,0,3.7,0.3,5.3,0.8c1.6,0.6,3,1.4,4.1,2.4c1.2,1.1,2.1,2.4,2.7,3.9c0.6,1.6,1,3.3,1,5.3c0,2-0.3,3.8-1,5.3
		c-0.6,1.6-1.5,2.9-2.7,3.9c-1.2,1.1-2.5,1.9-4.1,2.4c-1.6,0.5-3.4,0.8-5.3,0.8c-1.9,0-3.7-0.3-5.3-0.8c-1.6-0.5-3-1.3-4.1-2.4
		c-1.2-1.1-2.1-2.4-2.7-3.9C64.9,67.2,64.6,65.4,64.6,63.4 M87.4,63.4c0-1.9-0.2-3.6-0.7-5c-0.5-1.4-1.2-2.6-2-3.5
		c-0.9-0.9-1.9-1.6-3.1-2c-1.2-0.4-2.5-0.7-3.8-0.7c-1.4,0-2.6,0.2-3.8,0.7c-1.2,0.4-2.2,1.1-3.1,2c-0.9,0.9-1.6,2.1-2,3.5
		c-0.5,1.4-0.7,3.1-0.7,5c0,1.9,0.2,3.6,0.7,5c0.5,1.4,1.2,2.6,2,3.5c0.9,0.9,1.9,1.6,3.1,2c1.2,0.4,2.4,0.7,3.8,0.7
		c1.4,0,2.7-0.2,3.8-0.7c1.2-0.4,2.2-1.1,3.1-2c0.9-0.9,1.6-2.1,2-3.5C87.1,67,87.4,65.4,87.4,63.4"/>
	<path class="st0" d="M108.3,75.4c-0.5-1.4-1.2-3-2-5c-0.8-1.9-1.6-4-2.5-6.1c-0.9-2.1-1.8-4.3-2.7-6.6c-0.9-2.2-1.8-4.4-2.6-6.4
		c0.3,0,0.6,0.1,0.9,0.1c0.3,0,0.6,0.1,0.9,0.1s0.6,0,0.9-0.1c0.3,0,0.6-0.1,0.9-0.1c0.5,1.5,1.1,3.2,1.7,4.8c0.6,1.7,1.3,3.4,2,5.2
		c0.7,1.7,1.4,3.5,2.1,5.3c0.7,1.8,1.5,3.6,2.2,5.4c0.4-1,0.9-2,1.4-3.2c0.5-1.2,1-2.4,1.5-3.7c0.5-1.3,1-2.6,1.5-3.9
		c0.5-1.3,1-2.6,1.4-3.8c0.5-1.2,0.9-2.3,1.2-3.4c0.4-1,0.7-2,0.9-2.7c0.5,0.1,0.9,0.2,1.3,0.2c0.3,0,0.8-0.1,1.3-0.2
		c-1.8,4.1-3.6,8.1-5.2,12.1c-1.7,4-3.3,8-4.8,12c-0.4,0-0.8-0.1-1.2-0.1C109,75.3,108.7,75.4,108.3,75.4"/>
	<path class="st0" d="M137.6,65.6c-0.2-0.4-0.6-1-1-1.7c-0.5-0.8-1-1.6-1.5-2.5c-0.5-0.9-1.1-1.9-1.7-2.9c-0.6-1-1.2-2-1.7-2.9
		c-0.5-0.9-1-1.7-1.5-2.5c-0.4-0.7-0.8-1.3-1-1.7c0.3,0,0.6,0.1,1,0.1c0.3,0,0.6,0.1,1,0.1c0.3,0,0.6,0,1-0.1c0.3,0,0.6-0.1,1-0.1
		c1.1,2,2.1,4,3.2,6c1.1,2,2.2,4,3.4,6.1c0.5-0.8,1.1-1.8,1.7-2.8c0.6-1,1.2-2,1.7-3.1c0.6-1,1.1-2.1,1.7-3.2c0.5-1.1,1-2.1,1.5-3.1
		c0.6,0.1,1,0.2,1.4,0.2c0.3,0,0.8-0.1,1.4-0.2c-1.1,1.7-2.1,3.2-3,4.6c-0.9,1.4-1.7,2.6-2.3,3.7c-0.7,1.1-1.3,2.1-1.8,3
		c-0.5,0.9-1,1.7-1.3,2.4c0,0.9,0,1.8,0,2.8c0,1,0,1.9,0.1,2.9c0,0.9,0.1,1.8,0.1,2.6c0,0.8,0.1,1.5,0.1,1.9c-0.5,0-1.1-0.1-1.7-0.1
		c-0.6,0-1.2,0-1.7,0.1c0.1-1.2,0.2-2.7,0.2-4.4C137.6,69.3,137.6,67.5,137.6,65.6"/>
	<path class="st0" d="M73.2,13.8c-0.1-1.7-0.1-3.5-0.2-5.3c0.4,0.1,0.7,0.1,1,0.1c0.3,0,0.7,0.1,1,0.1c0.3,0,0.7,0,1-0.1
		c0.3,0,0.7-0.1,1-0.1c-0.1,1.8-0.2,3.6-0.2,5.3c-0.1,1.7-0.1,3.5-0.1,5.3v7c0,1.8,0,3.6,0.1,5.3c0.1,1.7,0.1,3.5,0.2,5.2
		c-0.6-0.1-1.3-0.1-2-0.1c-0.7,0-1.4,0-2,0.1c0.1-1.7,0.2-3.4,0.2-5.2c0.1-1.7,0.1-3.5,0.1-5.3v-7C73.3,17.3,73.3,15.5,73.2,13.8"/>
	<path class="st0" d="M80.2,9.9C80.1,8.1,80,6.4,80,4.6c0.4,0.1,0.7,0.1,1,0.1s0.7,0.1,1,0.1c0.3,0,0.7,0,1-0.1s0.7-0.1,1-0.1
		c-0.1,1.8-0.2,3.6-0.2,5.3c-0.1,1.7-0.1,3.5-0.1,5.3v7c0,1.8,0,3.6,0.1,5.3c0.1,1.7,0.1,3.5,0.2,5.2c-0.6-0.1-1.3-0.1-2-0.1
		c-0.7,0-1.4,0-2,0.1c0.1-1.7,0.2-3.4,0.2-5.2c0.1-1.7,0.1-3.5,0.1-5.3v-7C80.3,13.4,80.2,11.6,80.2,9.9"/>
	<path class="st0" d="M66.5,9.9c-0.1-1.7-0.1-3.5-0.2-5.3c0.4,0.1,0.7,0.1,1,0.1s0.7,0.1,1,0.1s0.7,0,1-0.1c0.3,0,0.7-0.1,1-0.1
		c-0.1,1.8-0.2,3.6-0.2,5.3C70,11.6,70,13.4,70,15.2v7c0,1.8,0,3.6,0.1,5.3c0.1,1.7,0.1,3.5,0.2,5.2c-0.6-0.1-1.3-0.1-2-0.1
		c-0.7,0-1.4,0-2,0.1c0.1-1.7,0.2-3.4,0.2-5.2c0.1-1.7,0.1-3.5,0.1-5.3v-7C66.6,13.4,66.6,11.6,66.5,9.9"/>
	<path class="st0" d="M30.9,88c0-0.5,0-0.9,0-1.4c0-0.4,0-0.9-0.1-1.4c0.3,0,0.5,0,0.8,0c0.3,0,0.5,0,0.8,0c0.3,0,0.5,0,0.8,0
		c0.3,0,0.5,0,0.8,0c0.6,0,1.1,0.1,1.6,0.2c0.4,0.2,0.8,0.4,1.1,0.7c0.3,0.3,0.5,0.7,0.6,1.1c0.1,0.4,0.2,0.9,0.2,1.5
		c0,0.7-0.1,1.3-0.4,1.8c-0.2,0.5-0.5,0.9-0.9,1.2c-0.4,0.3-0.8,0.5-1.2,0.6c-0.5,0.1-0.9,0.2-1.3,0.2c-0.2,0-0.5,0-0.7,0
		c-0.2,0-0.5,0-0.7,0h-0.7c-0.2,0-0.5,0-0.7,0c0-0.4,0-0.9,0.1-1.3c0-0.4,0-0.9,0-1.4V88z M31.7,89.8c0,0.8,0,1.5,0.1,2.2
		c0.1,0,0.3,0.1,0.6,0.1c0.3,0,0.5,0,0.8,0c0.4,0,0.8,0,1.2-0.1c0.4-0.1,0.7-0.3,1-0.5c0.3-0.3,0.6-0.6,0.7-1c0.2-0.4,0.3-1,0.3-1.7
		c0-0.6-0.1-1.1-0.2-1.5c-0.2-0.4-0.4-0.7-0.6-0.9c-0.3-0.2-0.6-0.4-0.9-0.5c-0.4-0.1-0.8-0.1-1.2-0.1c-0.3,0-0.6,0-0.9,0
		c-0.3,0-0.5,0-0.7,0.1c0,0.3,0,0.7,0,1.1c0,0.4,0,0.7,0,1.1V89.8z"/>
	<path class="st0" d="M42.1,86.6c0-0.4,0-0.9-0.1-1.3c0.3,0,0.6,0,0.9,0c0.3,0,0.6,0,0.9,0c0.3,0,0.6,0,0.9,0c0.3,0,0.6,0,0.9,0
		c0,0.1,0,0.2,0,0.3c0,0.1,0,0.2,0,0.3c-0.2,0-0.4,0-0.6,0c-0.2,0-0.4,0-0.6,0c-0.2,0-0.4,0-0.7,0c-0.2,0-0.5,0-0.9,0
		c0,0.2,0,0.4,0,0.6c0,0.2,0,0.4,0,0.7c0,0.3,0,0.5,0,0.8c0,0.3,0,0.5,0,0.6c0.3,0,0.6,0,0.8,0c0.2,0,0.5,0,0.7,0c0.2,0,0.4,0,0.6,0
		c0.2,0,0.3,0,0.5,0c0,0.1,0,0.2,0,0.3c0,0.1,0,0.2,0,0.3c-0.2,0-0.4,0-0.6-0.1c-0.2,0-0.5,0-0.7,0c-0.2,0-0.5,0-0.7,0
		c-0.2,0-0.4,0-0.5,0c0,0.1,0,0.1,0,0.2c0,0.1,0,0.2,0,0.3v0.4v0.6c0,0.4,0,0.7,0,1c0,0.3,0,0.5,0,0.6h0.7c0.3,0,0.5,0,0.8,0
		c0.3,0,0.5,0,0.7,0c0.2,0,0.4,0,0.6-0.1c0,0,0,0.1,0,0.2c0,0.1,0,0.1,0,0.2c0,0.1,0,0.2,0,0.3c-0.3,0-0.6,0-0.9,0H44h-1
		c-0.3,0-0.6,0-1,0c0-0.4,0-0.9,0.1-1.3c0-0.4,0-0.9,0-1.4v-1.8C42.2,87.5,42.1,87,42.1,86.6"/>
	<path class="st0" d="M52.6,92.4c-0.2-0.4-0.4-0.9-0.6-1.5c-0.2-0.6-0.5-1.2-0.7-1.8c-0.3-0.6-0.5-1.3-0.8-2
		c-0.3-0.7-0.5-1.3-0.8-1.9c0.1,0,0.2,0,0.3,0c0.1,0,0.2,0,0.3,0c0.1,0,0.2,0,0.3,0c0.1,0,0.2,0,0.3,0c0.2,0.5,0.3,0.9,0.5,1.5
		c0.2,0.5,0.4,1,0.6,1.5c0.2,0.5,0.4,1.1,0.6,1.6c0.2,0.5,0.4,1.1,0.7,1.6c0.1-0.3,0.3-0.6,0.4-1c0.1-0.4,0.3-0.7,0.4-1.1
		c0.2-0.4,0.3-0.8,0.4-1.2c0.1-0.4,0.3-0.8,0.4-1.1c0.1-0.4,0.3-0.7,0.4-1c0.1-0.3,0.2-0.6,0.3-0.8c0.2,0,0.3,0.1,0.4,0.1
		c0.1,0,0.2,0,0.4-0.1c-0.5,1.2-1.1,2.4-1.6,3.6c-0.5,1.2-1,2.4-1.4,3.6c-0.1,0-0.2,0-0.3,0C52.8,92.4,52.7,92.4,52.6,92.4"/>
	<path class="st0" d="M60.6,86.6c0-0.4,0-0.9-0.1-1.3c0.3,0,0.6,0,0.9,0c0.3,0,0.6,0,0.9,0c0.3,0,0.6,0,0.9,0c0.3,0,0.6,0,0.9,0
		c0,0.1,0,0.2,0,0.3c0,0.1,0,0.2,0,0.3c-0.2,0-0.4,0-0.6,0c-0.2,0-0.4,0-0.6,0c-0.2,0-0.4,0-0.7,0c-0.2,0-0.5,0-0.9,0
		c0,0.2,0,0.4,0,0.6c0,0.2,0,0.4,0,0.7c0,0.3,0,0.5,0,0.8c0,0.3,0,0.5,0,0.6c0.3,0,0.6,0,0.8,0c0.2,0,0.5,0,0.7,0c0.2,0,0.4,0,0.6,0
		c0.2,0,0.3,0,0.5,0c0,0.1,0,0.2,0,0.3c0,0.1,0,0.2,0,0.3c-0.2,0-0.4,0-0.6-0.1c-0.2,0-0.5,0-0.7,0c-0.2,0-0.5,0-0.7,0
		c-0.2,0-0.4,0-0.5,0c0,0.1,0,0.1,0,0.2c0,0.1,0,0.2,0,0.3v0.4v0.6c0,0.4,0,0.7,0,1c0,0.3,0,0.5,0,0.6h0.7c0.3,0,0.5,0,0.8,0
		c0.3,0,0.5,0,0.7,0c0.2,0,0.4,0,0.6-0.1c0,0,0,0.1,0,0.2c0,0.1,0,0.1,0,0.2c0,0.1,0,0.2,0,0.3c-0.3,0-0.6,0-0.9,0h-0.9h-1
		c-0.3,0-0.6,0-1,0c0-0.4,0-0.9,0.1-1.3c0-0.4,0-0.9,0-1.4v-1.8C60.7,87.5,60.7,87,60.6,86.6"/>
	<path class="st0" d="M69,86.6c0-0.4,0-0.9-0.1-1.4c0.1,0,0.2,0,0.3,0c0.1,0,0.2,0,0.3,0c0.1,0,0.2,0,0.3,0c0.1,0,0.2,0,0.3,0
		c0,0.5,0,0.9-0.1,1.4c0,0.4,0,0.9,0,1.4c0,0.9,0,1.6,0,2.3c0,0.6,0,1.2,0,1.7c0.5,0,1,0,1.4,0c0.5,0,0.9-0.1,1.5-0.1
		c0,0.1-0.1,0.2-0.1,0.3c0,0.1,0,0.2,0.1,0.3c-0.3,0-0.6,0-1,0h-1h-1c-0.3,0-0.6,0-1,0c0-0.4,0-0.9,0.1-1.3c0-0.4,0-0.9,0-1.4V88
		C69,87.5,69,87,69,86.6"/>
	<path class="st0" d="M76.8,88.9c0-0.6,0.1-1.1,0.3-1.6c0.2-0.5,0.5-0.9,0.8-1.2c0.3-0.3,0.8-0.6,1.2-0.7c0.5-0.2,1-0.3,1.6-0.3
		c0.6,0,1.1,0.1,1.6,0.3c0.5,0.2,0.9,0.4,1.2,0.7c0.3,0.3,0.6,0.7,0.8,1.2c0.2,0.5,0.3,1,0.3,1.6c0,0.6-0.1,1.1-0.3,1.6
		c-0.2,0.5-0.5,0.9-0.8,1.2c-0.3,0.3-0.8,0.6-1.2,0.7c-0.5,0.2-1,0.2-1.6,0.2c-0.6,0-1.1-0.1-1.6-0.2c-0.5-0.2-0.9-0.4-1.2-0.7
		c-0.3-0.3-0.6-0.7-0.8-1.2C76.9,90,76.8,89.4,76.8,88.9 M83.7,88.9c0-0.6-0.1-1.1-0.2-1.5c-0.1-0.4-0.4-0.8-0.6-1
		c-0.3-0.3-0.6-0.5-0.9-0.6c-0.4-0.1-0.7-0.2-1.1-0.2c-0.4,0-0.8,0.1-1.1,0.2c-0.4,0.1-0.7,0.3-0.9,0.6c-0.3,0.3-0.5,0.6-0.6,1
		c-0.1,0.4-0.2,0.9-0.2,1.5c0,0.6,0.1,1.1,0.2,1.5c0.1,0.4,0.4,0.8,0.6,1c0.3,0.3,0.6,0.5,0.9,0.6c0.4,0.1,0.7,0.2,1.1,0.2
		c0.4,0,0.8-0.1,1.1-0.2c0.4-0.1,0.7-0.3,0.9-0.6c0.3-0.3,0.5-0.6,0.6-1C83.6,89.9,83.7,89.4,83.7,88.9"/>
	<path class="st0" d="M89.3,88c0-0.5,0-0.9,0-1.4c0-0.4,0-0.9-0.1-1.4c0.2,0,0.3,0,0.5,0c0.2,0,0.3,0,0.5,0c0.1,0,0.2,0,0.3,0
		c0.1,0,0.2,0,0.4,0c0.1,0,0.2,0,0.4,0c0.1,0,0.2,0,0.3,0c0.1,0,0.2,0,0.4,0c0.2,0,0.3,0,0.5,0.1c0.2,0,0.3,0.1,0.5,0.2
		c0.2,0.1,0.3,0.2,0.5,0.3c0.1,0.1,0.2,0.3,0.3,0.5c0.1,0.2,0.1,0.4,0.1,0.7c0,0.5-0.1,0.8-0.3,1.1c-0.2,0.3-0.4,0.5-0.7,0.7
		c-0.3,0.2-0.6,0.3-0.9,0.3s-0.6,0.1-0.9,0.1c-0.2,0-0.3,0-0.4,0c-0.1,0-0.3,0-0.4,0v0.6c0,0.5,0,0.9,0,1.4c0,0.4,0,0.9,0.1,1.3
		c-0.2,0-0.3,0-0.5,0c-0.2,0-0.4,0-0.5,0c0-0.4,0-0.9,0.1-1.3c0-0.4,0-0.9,0-1.4V88z M90.2,88.7c0.2,0.1,0.5,0.1,0.7,0.1
		c0.2,0,0.4,0,0.7-0.1c0.2,0,0.4-0.1,0.6-0.3c0.2-0.1,0.3-0.3,0.5-0.5c0.1-0.2,0.2-0.5,0.2-0.9c0-0.3,0-0.5-0.1-0.7
		c-0.1-0.2-0.2-0.3-0.4-0.4c-0.2-0.1-0.3-0.2-0.5-0.2c-0.2,0-0.5-0.1-0.7-0.1h-0.9V88.7z"/>
	<path class="st0" d="M98.2,86.6c0-0.4,0-0.9-0.1-1.3c0.3,0,0.6,0,0.9,0c0.3,0,0.6,0,0.9,0s0.6,0,0.9,0c0.3,0,0.6,0,0.9,0
		c0,0.1,0,0.2,0,0.3c0,0.1,0,0.2,0,0.3c-0.2,0-0.4,0-0.6,0c-0.2,0-0.4,0-0.6,0c-0.2,0-0.4,0-0.7,0c-0.2,0-0.5,0-0.9,0
		c0,0.2,0,0.4,0,0.6c0,0.2,0,0.4,0,0.7c0,0.3,0,0.5,0,0.8c0,0.3,0,0.5,0,0.6c0.3,0,0.6,0,0.8,0c0.2,0,0.5,0,0.7,0c0.2,0,0.4,0,0.6,0
		c0.2,0,0.3,0,0.5,0c0,0.1,0,0.2,0,0.3c0,0.1,0,0.2,0,0.3c-0.2,0-0.4,0-0.6-0.1c-0.2,0-0.5,0-0.7,0c-0.2,0-0.5,0-0.7,0
		c-0.2,0-0.4,0-0.5,0c0,0.1,0,0.1,0,0.2c0,0.1,0,0.2,0,0.3v0.4v0.6c0,0.4,0,0.7,0,1c0,0.3,0,0.5,0,0.6h0.7c0.3,0,0.5,0,0.8,0
		c0.3,0,0.5,0,0.7,0c0.2,0,0.4,0,0.6-0.1c0,0,0,0.1,0,0.2c0,0.1,0,0.1,0,0.2c0,0.1,0,0.2,0,0.3c-0.3,0-0.6,0-0.9,0h-0.9h-1
		c-0.3,0-0.6,0-1,0c0-0.4,0-0.9,0.1-1.3c0-0.4,0-0.9,0-1.4v-1.8C98.3,87.5,98.3,87,98.2,86.6"/>
	<path class="st0" d="M106.6,88c0-0.5,0-0.9,0-1.4c0-0.4,0-0.9-0.1-1.4c0.2,0,0.4,0,0.6,0c0.2,0,0.4,0,0.6,0c0.2,0,0.4,0,0.6,0
		c0.2,0,0.4,0,0.6,0c0.3,0,0.6,0,0.8,0.1c0.3,0.1,0.5,0.1,0.7,0.3c0.2,0.1,0.4,0.3,0.5,0.5c0.1,0.2,0.2,0.5,0.2,0.8
		c0,0.3-0.1,0.6-0.2,0.9c-0.2,0.2-0.3,0.4-0.6,0.6c-0.2,0.2-0.4,0.3-0.7,0.4c-0.2,0.1-0.5,0.1-0.7,0.2c0.1,0.1,0.2,0.3,0.3,0.4
		c0.1,0.2,0.3,0.4,0.5,0.6c0.2,0.2,0.4,0.5,0.6,0.7c0.2,0.2,0.4,0.5,0.6,0.7c0.2,0.2,0.4,0.4,0.5,0.6c0.2,0.2,0.3,0.3,0.4,0.4
		c-0.1,0-0.2,0-0.3,0h-0.3h-0.3c-0.1,0-0.2,0-0.3,0c-0.1-0.1-0.3-0.4-0.5-0.7c-0.2-0.3-0.4-0.6-0.7-0.9c-0.3-0.3-0.5-0.7-0.8-1
		c-0.3-0.3-0.5-0.6-0.7-0.8h-0.4v0.8c0,0.5,0,0.9,0,1.4c0,0.4,0,0.9,0.1,1.3c-0.2,0-0.3,0-0.5,0c-0.2,0-0.4,0-0.5,0
		c0-0.4,0-0.9,0.1-1.3c0-0.4,0-0.9,0-1.4V88z M107.5,88.5c0.1,0,0.2,0,0.3,0c0.1,0,0.2,0,0.4,0c0.2,0,0.4,0,0.7-0.1
		c0.2,0,0.4-0.1,0.6-0.3c0.2-0.1,0.4-0.3,0.5-0.5c0.1-0.2,0.2-0.5,0.2-0.8c0-0.3-0.1-0.5-0.2-0.7c-0.1-0.2-0.2-0.3-0.4-0.4
		c-0.2-0.1-0.3-0.2-0.5-0.2c-0.2,0-0.4-0.1-0.6-0.1c-0.2,0-0.4,0-0.6,0s-0.3,0-0.4,0c0,0.4,0,0.8,0,1.1c0,0.4,0,0.8,0,1.1V88.5z"/>
	<path class="st0" d="M116.2,91.5c0.1,0.1,0.2,0.2,0.3,0.4c0.1,0.1,0.3,0.2,0.5,0.3c0.2,0.1,0.4,0.1,0.6,0.1c0.2,0,0.4,0,0.6-0.1
		c0.2-0.1,0.3-0.2,0.5-0.3c0.1-0.1,0.2-0.3,0.3-0.5c0.1-0.2,0.1-0.4,0.1-0.6c0-0.3-0.1-0.6-0.2-0.8c-0.2-0.2-0.4-0.3-0.6-0.5
		c-0.2-0.1-0.5-0.2-0.8-0.3c-0.3-0.1-0.5-0.2-0.8-0.4c-0.2-0.2-0.4-0.4-0.6-0.6c-0.2-0.2-0.2-0.6-0.2-1c0-0.3,0.1-0.6,0.2-0.8
		c0.1-0.2,0.3-0.4,0.5-0.6c0.2-0.2,0.4-0.3,0.7-0.4c0.3-0.1,0.6-0.1,0.9-0.1c0.3,0,0.6,0,0.9,0.1c0.2,0.1,0.5,0.2,0.7,0.4
		c-0.1,0.1-0.1,0.2-0.2,0.4c0,0.1-0.1,0.3-0.1,0.5h-0.1c0-0.1-0.1-0.2-0.1-0.3c-0.1-0.1-0.1-0.2-0.2-0.3c-0.1-0.1-0.2-0.2-0.4-0.2
		c-0.1-0.1-0.3-0.1-0.5-0.1c-0.2,0-0.4,0-0.5,0.1c-0.2,0.1-0.3,0.2-0.4,0.3c-0.1,0.1-0.2,0.3-0.3,0.4c-0.1,0.2-0.1,0.3-0.1,0.5
		c0,0.3,0.1,0.6,0.2,0.8c0.2,0.2,0.4,0.3,0.6,0.5c0.2,0.1,0.5,0.2,0.8,0.3c0.3,0.1,0.5,0.2,0.8,0.4c0.2,0.1,0.4,0.3,0.6,0.6
		c0.2,0.2,0.2,0.5,0.2,0.9c0,0.3-0.1,0.6-0.2,0.9c-0.1,0.3-0.3,0.5-0.5,0.7c-0.2,0.2-0.5,0.4-0.8,0.5c-0.3,0.1-0.7,0.2-1.1,0.2
		c-0.4,0-0.8-0.1-1.1-0.2c-0.3-0.1-0.5-0.2-0.7-0.4c0.1-0.2,0.1-0.3,0.1-0.4c0-0.1,0-0.3,0.1-0.5h0.1
		C116,91.2,116.1,91.3,116.2,91.5"/>
</g>
</svg>
